<?xml version="1.0" encoding="UTF-8" ?>
<!DOCTYPE svg PUBLIC "-//W3C//DTD SVG 1.1//EN" "http://www.w3.org/Graphics/SVG/1.1/DTD/svg11.dtd">
<svg width="125pt" height="125pt" viewBox="0 0 125 125" version="1.1" xmlns="http://www.w3.org/2000/svg">
<path fill="#ffffff" d=" M 0.00 0.00 L 125.00 0.00 L 125.00 125.00 L 0.00 125.00 L 0.00 0.00 Z" />
<path fill="#89654a" d=" M 12.97 4.75 C 15.25 4.86 17.53 5.22 19.81 4.76 C 20.16 5.04 20.87 5.59 21.23 5.87 C 20.85 7.04 20.96 8.46 20.14 9.45 C 19.01 9.55 16.75 9.75 15.62 9.85 C 15.66 9.14 15.74 7.71 15.77 7.00 L 16.96 7.15 C 16.60 6.99 15.86 6.68 15.50 6.52 C 14.71 7.79 13.95 9.09 13.30 10.45 C 11.16 9.30 10.74 5.98 12.97 4.75 Z" />
<path fill="#020202" d=" M 21.70 4.08 C 30.80 3.81 39.91 4.14 49.01 3.96 C 63.01 3.15 77.02 3.67 91.02 4.06 C 94.92 4.37 98.84 4.95 102.76 4.49 C 102.89 5.68 102.99 6.87 103.06 8.07 C 103.11 12.17 103.07 16.28 103.05 20.39 C 99.05 24.85 96.75 30.57 95.26 36.30 C 94.61 38.67 93.20 40.70 91.83 42.69 C 89.06 42.02 85.86 41.47 83.55 43.59 C 81.59 38.78 77.33 35.57 72.47 34.07 C 72.62 32.43 72.78 30.79 72.95 29.15 C 73.95 28.15 74.95 27.16 75.95 26.17 C 76.92 26.63 77.90 27.09 78.88 27.56 C 79.20 26.73 79.52 25.91 79.83 25.08 C 76.41 21.22 73.56 15.85 68.01 14.87 C 65.65 14.48 61.97 14.30 61.03 17.08 C 59.85 19.47 60.95 22.01 61.81 24.28 C 58.21 24.29 54.60 24.27 51.00 24.20 C 51.11 27.15 51.30 30.10 51.46 33.05 C 47.71 32.97 43.96 32.93 40.22 33.05 C 41.05 36.42 41.87 39.80 42.68 43.18 C 40.03 43.18 37.40 43.21 34.76 43.18 C 35.65 42.62 36.54 42.07 37.44 41.51 C 36.17 38.20 35.10 34.81 34.16 31.39 C 33.54 31.71 32.93 32.04 32.32 32.36 C 32.13 31.85 31.74 30.83 31.55 30.32 C 30.56 30.62 29.58 30.92 28.59 31.22 C 27.67 36.92 27.66 43.87 33.23 47.27 C 33.56 47.54 34.21 48.09 34.54 48.37 C 37.28 48.36 40.03 48.40 42.77 48.43 C 41.96 52.22 41.12 56.01 40.22 59.79 C 44.09 59.86 47.96 59.83 51.83 59.79 C 51.51 62.79 51.17 65.80 50.85 68.80 C 54.51 68.81 58.17 68.82 61.83 68.83 C 61.31 69.78 60.80 70.74 60.29 71.70 C 58.77 70.60 57.08 69.94 55.25 70.68 C 55.40 71.37 55.70 72.76 55.85 73.46 L 55.15 73.44 L 53.63 73.42 C 53.03 73.42 51.85 73.40 51.25 73.39 C 51.39 75.84 51.53 78.31 51.28 80.76 L 49.65 81.31 C 50.07 78.35 50.55 74.86 47.79 72.83 C 47.88 75.51 47.96 78.18 47.95 80.86 L 47.06 80.87 C 47.07 78.43 47.16 76.00 47.40 73.57 L 45.33 73.28 C 45.47 76.19 45.78 79.18 44.76 81.98 C 45.10 83.30 45.73 84.51 46.34 85.72 C 45.00 87.27 43.68 88.97 41.70 89.73 C 39.45 88.28 37.51 86.42 35.39 84.80 C 35.16 86.74 34.92 88.69 34.81 90.65 C 33.15 90.65 31.49 90.66 29.83 90.68 C 30.81 94.41 29.25 98.05 28.52 101.67 C 27.60 99.85 26.67 98.04 25.75 96.22 C 25.07 96.20 23.70 96.16 23.01 96.14 C 22.89 100.62 21.31 107.32 26.55 109.49 C 26.09 110.34 25.59 111.16 25.10 111.99 C 27.08 111.99 29.07 112.01 31.06 112.06 C 30.44 110.87 29.85 109.66 29.29 108.43 C 30.79 108.68 32.27 109.05 33.73 109.52 C 33.86 110.12 34.12 111.34 34.25 111.95 C 35.92 111.96 37.59 111.96 39.26 111.95 C 38.27 107.63 37.39 103.28 36.43 98.95 C 38.81 98.74 41.20 98.91 43.51 99.54 C 42.86 101.82 42.24 104.10 41.59 106.37 C 41.04 108.25 40.49 110.13 39.94 112.01 C 43.58 111.98 47.23 112.00 50.88 112.01 C 50.89 109.76 50.93 107.51 50.98 105.26 C 49.68 106.84 48.43 108.54 46.61 109.56 L 45.88 108.53 C 47.08 104.26 48.31 100.00 49.43 95.71 C 50.05 96.08 51.31 96.81 51.94 97.18 C 53.08 95.65 54.27 94.15 55.56 92.75 C 56.06 98.15 55.71 103.58 55.87 109.00 C 54.88 109.95 53.88 110.89 52.89 111.83 C 56.29 111.96 59.70 111.96 63.10 111.98 C 62.15 110.96 61.20 109.93 60.25 108.91 C 60.37 103.56 60.08 98.20 60.48 92.85 C 61.85 94.20 63.11 95.65 64.24 97.20 L 64.52 97.74 C 64.96 95.56 65.44 93.39 65.88 91.21 C 68.21 95.43 66.97 100.38 67.28 104.96 C 67.51 107.50 66.79 109.92 65.36 112.01 C 69.16 111.88 72.97 111.93 76.77 111.95 C 76.76 109.92 76.77 107.89 76.80 105.87 C 75.24 107.46 73.61 109.07 71.43 109.79 C 71.36 107.01 71.40 104.23 71.53 101.46 C 72.52 102.28 73.50 103.11 74.48 103.94 C 74.49 101.75 74.52 99.56 74.55 97.36 C 73.57 98.14 72.59 98.92 71.61 99.70 C 71.48 97.62 71.43 95.54 71.38 93.46 C 71.87 93.46 72.85 93.44 73.34 93.44 C 74.47 94.59 75.61 95.74 76.74 96.90 C 76.77 95.39 76.81 93.89 76.84 92.38 C 77.20 92.89 77.93 93.91 78.29 94.42 C 77.91 97.47 77.56 100.54 77.77 103.62 C 78.13 106.32 78.60 109.36 80.84 111.21 C 82.33 112.66 84.56 112.20 86.43 112.36 C 86.14 114.51 85.31 116.55 83.49 117.87 C 84.40 118.45 85.31 119.04 86.22 119.63 C 80.45 119.58 74.69 118.55 68.91 119.15 C 53.26 120.43 37.62 117.78 21.96 118.79 C 21.43 108.87 22.28 98.94 21.93 89.01 C 21.31 77.01 22.52 65.01 22.06 53.00 C 21.61 36.70 21.36 20.39 21.70 4.08 Z" />
<path fill="#9a7f61" d=" M 102.94 5.69 C 107.29 5.78 111.64 5.68 115.99 5.98 C 112.24 8.06 107.66 7.81 103.50 7.74 L 102.94 5.69 Z" />
<path fill="#bcbcbc" d=" M 103.06 8.07 C 107.72 7.84 112.41 7.55 117.07 8.11 C 113.08 9.84 108.62 8.71 104.42 9.13 C 104.73 20.75 104.32 32.38 104.51 44.00 C 105.21 69.18 104.22 94.37 104.67 119.54 C 96.83 121.27 88.56 121.63 80.53 121.12 C 73.07 119.55 65.53 121.38 58.03 121.24 C 47.37 120.59 36.70 120.14 26.03 119.85 C 24.60 119.85 23.28 119.25 21.96 118.79 C 37.62 117.78 53.26 120.43 68.91 119.15 C 74.69 118.55 80.45 119.58 86.22 119.63 C 91.89 119.67 97.54 119.18 103.20 118.86 C 102.40 110.93 103.38 102.96 103.09 95.01 C 103.37 82.52 103.54 70.02 103.34 57.53 C 103.33 56.82 103.30 55.40 103.29 54.69 C 103.18 51.57 103.07 48.46 103.03 45.33 C 103.04 37.02 103.03 28.70 103.05 20.39 C 103.07 16.28 103.11 12.17 103.06 8.07 Z" />
<path fill="#0d0d0d" d=" M 80.09 13.10 C 81.76 12.80 82.12 15.11 83.10 16.05 C 83.53 16.24 84.38 16.62 84.81 16.82 C 84.57 15.72 84.32 14.62 84.07 13.53 C 87.09 12.30 90.47 13.40 93.25 14.78 C 95.38 17.17 92.91 20.30 91.05 21.98 C 88.24 23.79 85.42 25.73 84.03 28.91 C 84.10 26.86 84.42 24.79 84.13 22.74 C 82.59 19.60 78.53 17.09 80.09 13.10 Z" />
<path fill="#181919" d=" M 61.03 17.08 C 61.97 14.30 65.65 14.48 68.01 14.87 C 73.56 15.85 76.41 21.22 79.83 25.08 C 79.52 25.91 79.20 26.73 78.88 27.56 C 77.90 27.09 76.92 26.63 75.95 26.17 C 74.95 27.16 73.95 28.15 72.95 29.15 C 73.11 27.51 73.28 25.88 73.46 24.24 C 69.57 24.26 65.69 24.26 61.81 24.28 C 60.95 22.01 59.85 19.47 61.03 17.08 Z" />
<path fill="#191918" d=" M 95.26 36.30 C 96.75 30.57 99.05 24.85 103.05 20.39 C 103.03 28.70 103.04 37.02 103.03 45.33 C 101.97 46.22 100.43 46.71 99.78 48.01 C 99.65 49.77 99.99 51.52 100.18 53.27 C 97.46 56.40 94.38 59.77 94.68 64.25 C 97.52 61.04 100.06 57.55 103.29 54.69 C 103.30 55.40 103.33 56.82 103.34 57.53 C 101.20 62.25 97.70 68.02 91.88 68.13 C 91.96 63.49 94.59 58.97 93.27 54.36 C 89.52 58.77 87.06 64.07 83.60 68.69 C 83.12 67.96 82.65 67.23 82.17 66.50 C 80.55 66.76 78.94 67.02 77.32 67.29 C 77.67 67.61 78.36 68.26 78.70 68.59 C 78.51 68.83 78.13 69.32 77.94 69.57 C 77.54 69.40 76.74 69.06 76.35 68.89 C 75.34 68.45 74.33 68.00 73.33 67.54 C 73.22 64.56 73.03 61.57 72.88 58.59 C 77.62 56.94 82.36 53.78 83.34 48.49 C 88.17 51.39 93.72 48.60 97.73 45.62 C 95.85 44.47 93.90 43.44 91.83 42.69 C 93.20 40.70 94.61 38.67 95.26 36.30 Z" />
<path fill="#f3f3f1" d=" M 51.00 24.20 C 54.60 24.27 58.21 24.29 61.81 24.28 C 65.69 24.26 69.57 24.26 73.46 24.24 C 73.28 25.88 73.11 27.51 72.95 29.15 C 72.78 30.79 72.62 32.43 72.47 34.07 C 77.33 35.57 81.59 38.78 83.55 43.59 C 85.86 41.47 89.06 42.02 91.83 42.69 C 93.90 43.44 95.85 44.47 97.73 45.62 C 93.72 48.60 88.17 51.39 83.34 48.49 C 82.36 53.78 77.62 56.94 72.88 58.59 C 73.03 61.57 73.22 64.56 73.33 67.54 C 74.33 68.00 75.34 68.45 76.35 68.89 L 75.74 68.72 C 71.10 68.64 66.47 68.93 61.83 68.83 C 58.17 68.82 54.51 68.81 50.85 68.80 C 51.17 65.80 51.51 62.79 51.83 59.79 C 47.96 59.83 44.09 59.86 40.22 59.79 C 41.12 56.01 41.96 52.22 42.77 48.43 C 40.03 48.40 37.28 48.36 34.54 48.37 C 34.21 48.09 33.56 47.54 33.23 47.27 C 33.20 46.50 33.16 44.95 33.14 44.18 C 33.54 43.93 34.35 43.43 34.76 43.18 C 37.40 43.21 40.03 43.18 42.68 43.18 C 41.87 39.80 41.05 36.42 40.22 33.05 C 43.96 32.93 47.71 32.97 51.46 33.05 C 51.30 30.10 51.11 27.15 51.00 24.20 Z" />
<path fill="#d00924" d=" M 51.95 25.23 C 58.76 25.21 65.56 25.21 72.36 25.22 C 71.91 30.28 71.25 35.32 70.82 40.38 C 68.68 40.42 66.55 40.48 64.42 40.63 C 66.52 37.38 65.30 33.33 65.51 29.71 C 63.69 29.75 61.88 29.78 60.07 29.82 C 60.09 30.61 60.13 32.19 60.15 32.98 C 58.82 33.01 57.50 33.03 56.17 33.06 C 56.58 31.34 56.99 29.62 57.41 27.90 C 55.36 26.91 53.00 26.09 52.18 28.99 C 52.10 27.74 52.03 26.48 51.95 25.23 Z" />
<path fill="#c2080d" d=" M 52.18 28.99 C 53.00 26.09 55.36 26.91 57.41 27.90 C 56.99 29.62 56.58 31.34 56.17 33.06 C 55.22 33.00 53.31 32.89 52.35 32.84 C 52.27 31.56 52.21 30.28 52.18 28.99 Z" />
<path fill="#0f100a" d=" M 28.59 31.22 C 29.58 30.92 30.56 30.62 31.55 30.32 C 31.74 30.83 32.13 31.85 32.32 32.36 C 32.93 32.04 33.54 31.71 34.16 31.39 C 35.10 34.81 36.17 38.20 37.44 41.51 C 36.54 42.07 35.65 42.62 34.76 43.18 C 34.35 43.43 33.54 43.93 33.14 44.18 C 33.16 44.95 33.20 46.50 33.23 47.27 C 27.66 43.87 27.67 36.92 28.59 31.22 Z" />
<path fill="#020302" d=" M 61.08 30.73 C 61.95 30.73 63.68 30.73 64.54 30.74 C 64.60 31.27 64.70 32.33 64.76 32.86 C 63.54 32.90 62.32 32.94 61.10 32.98 C 61.09 32.42 61.09 31.29 61.08 30.73 Z" />
<path fill="#020302" d=" M 41.40 33.84 C 49.14 33.82 56.88 33.85 64.62 33.82 C 64.63 35.26 64.64 36.70 64.64 38.14 C 59.67 38.13 54.69 38.15 49.72 38.11 C 50.68 43.75 50.41 49.43 49.72 55.07 C 50.39 55.07 51.73 55.05 52.40 55.04 C 52.27 56.34 52.15 57.64 52.02 58.94 C 48.48 58.87 44.94 58.95 41.40 58.93 C 42.21 55.16 43.07 51.40 43.90 47.63 C 40.65 47.53 37.40 47.43 34.15 47.28 C 34.14 46.51 34.12 44.96 34.11 44.18 C 37.33 44.09 40.54 44.15 43.76 44.09 C 43.04 40.66 42.14 37.27 41.40 33.84 Z" />
<path fill="#080808" d=" M 72.58 40.36 C 71.01 38.96 72.37 36.72 72.28 34.95 C 76.89 36.47 81.28 39.47 82.66 44.37 C 83.05 44.37 83.82 44.38 84.20 44.38 C 87.63 41.41 92.36 44.15 96.01 45.35 C 95.00 46.21 93.98 47.07 92.96 47.92 C 92.61 47.84 91.90 47.67 91.55 47.59 C 90.08 49.01 87.94 48.59 86.08 48.81 C 85.01 48.26 83.94 47.74 82.84 47.25 C 82.39 48.47 81.94 49.68 81.48 50.89 C 80.51 49.07 79.71 47.17 79.11 45.19 C 77.37 45.58 75.91 46.60 74.99 48.14 C 75.08 45.35 74.69 42.39 72.58 40.36 Z" />
<path fill="#070707" d=" M 50.69 39.00 L 52.02 38.98 C 52.18 42.59 52.44 46.20 52.75 49.80 C 56.83 49.74 60.91 49.72 65.00 49.80 C 64.97 51.25 64.94 52.69 64.91 54.13 C 63.55 54.10 62.19 54.06 60.84 54.01 C 61.72 53.28 62.60 52.56 63.49 51.84 C 59.89 51.91 56.30 51.92 52.70 51.90 C 52.65 52.48 52.54 53.65 52.48 54.24 L 50.68 54.04 C 51.51 49.05 51.47 43.99 50.69 39.00 Z" />
<path fill="#c2080d" d=" M 53.04 38.95 C 54.75 38.95 56.46 38.95 58.17 38.94 C 58.11 40.10 58.05 41.27 58.00 42.43 C 57.28 42.15 56.56 41.86 55.84 41.57 C 55.30 44.02 54.64 46.44 53.75 48.79 C 53.27 45.53 53.07 42.24 53.04 38.95 Z" />
<path fill="#ca0621" d=" M 58.17 38.94 C 58.65 38.97 59.61 39.01 60.10 39.04 C 60.11 40.52 60.14 41.99 60.17 43.47 C 63.73 43.42 67.29 43.46 70.85 43.49 C 71.04 46.41 71.22 49.34 71.49 52.26 C 69.71 53.10 67.83 53.66 65.89 53.98 C 65.93 52.25 65.95 50.52 65.97 48.79 C 61.89 48.81 57.82 48.79 53.75 48.79 C 54.64 46.44 55.30 44.02 55.84 41.57 C 56.56 41.86 57.28 42.15 58.00 42.43 C 58.05 41.27 58.11 40.10 58.17 38.94 Z" />
<path fill="#020302" d=" M 61.06 39.10 C 61.82 39.07 63.35 39.02 64.12 38.99 C 63.61 39.58 62.59 40.76 62.08 41.34 C 65.57 41.42 69.06 41.35 72.55 41.27 C 74.41 44.38 74.55 48.38 72.39 51.37 C 72.13 48.43 71.95 45.48 71.74 42.53 C 68.24 42.47 64.73 42.46 61.22 42.52 C 61.17 41.38 61.11 40.23 61.06 39.10 Z" />
<path fill="#191819" d=" M 74.99 48.14 C 75.91 46.60 77.37 45.58 79.11 45.19 C 79.71 47.17 80.51 49.07 81.48 50.89 L 81.64 51.21 C 76.99 58.48 67.44 59.16 59.63 59.22 C 59.63 57.80 59.64 56.38 59.65 54.96 C 63.77 54.95 68.31 55.27 71.88 52.81 C 73.55 51.76 74.10 49.78 74.99 48.14 Z" />
<path fill="#0b0b0b" d=" M 99.78 48.01 C 100.43 46.71 101.97 46.22 103.03 45.33 C 103.07 48.46 103.18 51.57 103.29 54.69 C 100.06 57.55 97.52 61.04 94.68 64.25 C 94.38 59.77 97.46 56.40 100.18 53.27 C 99.99 51.52 99.65 49.77 99.78 48.01 Z" />
<path fill="#13140e" d=" M 25.11 52.85 C 27.92 54.82 28.80 58.39 31.37 60.59 C 34.41 63.16 35.41 67.15 37.73 70.26 C 37.68 70.85 37.57 72.04 37.52 72.63 C 37.28 75.38 37.31 78.15 37.32 80.91 L 36.30 80.95 C 35.75 78.09 35.10 75.24 33.98 72.55 C 32.49 75.19 31.91 78.18 31.87 81.19 C 31.00 78.72 29.53 76.57 27.79 74.64 C 28.80 74.70 29.82 74.76 30.83 74.83 C 30.78 74.52 30.68 73.92 30.63 73.61 C 30.69 72.43 30.75 71.24 30.80 70.05 C 30.00 68.15 28.05 66.92 27.48 64.90 C 26.46 60.94 24.36 57.05 25.11 52.85 Z" />
<path fill="#c60317" d=" M 53.64 52.90 C 55.94 52.90 58.25 52.92 60.56 52.97 C 60.07 53.32 59.08 54.02 58.59 54.38 C 58.72 57.30 58.52 60.24 58.90 63.15 C 59.10 64.31 59.34 65.47 59.58 66.62 C 56.99 66.88 54.41 67.16 51.84 67.53 C 52.70 62.69 52.91 57.76 53.64 52.90 Z" />
<path fill="#070707" d=" M 83.60 68.69 C 87.06 64.07 89.52 58.77 93.27 54.36 C 94.59 58.97 91.96 63.49 91.88 68.13 C 97.70 68.02 101.20 62.25 103.34 57.53 C 103.54 70.02 103.37 82.52 103.09 95.01 C 103.38 102.96 102.40 110.93 103.20 118.86 C 97.54 119.18 91.89 119.67 86.22 119.63 C 85.31 119.04 84.40 118.45 83.49 117.87 C 85.31 116.55 86.14 114.51 86.43 112.36 C 86.73 111.91 87.34 111.02 87.64 110.57 C 87.64 108.54 87.65 106.51 87.68 104.48 C 86.75 106.65 85.70 108.81 83.90 110.41 C 81.03 106.86 82.57 101.98 82.18 97.80 C 82.39 95.97 81.94 92.04 84.92 93.05 C 86.04 94.71 86.87 96.53 87.80 98.30 C 87.76 96.22 87.85 94.13 87.58 92.06 C 87.02 90.24 84.65 90.46 83.16 90.04 C 82.42 89.32 81.69 88.59 80.96 87.87 C 81.78 87.70 82.60 87.53 83.43 87.36 C 84.23 85.41 85.03 83.46 85.85 81.52 L 87.73 82.60 C 87.44 79.60 86.83 76.64 86.19 73.70 C 85.79 73.58 84.98 73.34 84.58 73.23 C 84.29 74.55 83.99 75.88 83.69 77.21 C 83.48 78.10 83.38 79.00 83.39 79.91 C 82.59 80.50 81.77 81.06 80.94 81.62 C 81.02 79.43 81.04 77.24 81.07 75.05 C 81.59 75.26 82.63 75.66 83.16 75.86 C 82.97 75.22 82.61 73.95 82.43 73.31 C 79.72 73.44 77.00 73.43 74.31 73.01 C 74.94 71.64 75.35 70.18 75.74 68.72 L 76.35 68.89 C 76.74 69.06 77.54 69.40 77.94 69.57 C 78.13 69.32 78.51 68.83 78.70 68.59 C 78.36 68.26 77.67 67.61 77.32 67.29 C 78.94 67.02 80.55 66.76 82.17 66.50 C 82.65 67.23 83.12 67.96 83.60 68.69 Z" />
<path fill="#d3122f" d=" M 65.92 59.66 C 67.93 59.44 69.93 59.19 71.93 58.92 C 72.10 61.91 72.29 64.89 72.43 67.88 C 65.57 67.62 58.65 68.42 51.84 67.53 C 54.41 67.16 56.99 66.88 59.58 66.62 C 59.34 65.47 59.10 64.31 58.90 63.15 C 61.22 63.14 63.54 63.13 65.86 63.12 C 65.88 62.25 65.91 60.52 65.92 59.66 Z" />
<path fill="#070707" d=" M 59.56 62.13 C 59.00 58.66 62.92 60.32 64.95 59.93 C 64.96 60.49 64.97 61.60 64.98 62.16 C 63.17 62.15 61.36 62.14 59.56 62.13 Z" />
<path fill="#121211" d=" M 61.83 68.83 C 66.47 68.93 71.10 68.64 75.74 68.72 C 75.35 70.18 74.94 71.64 74.31 73.01 C 71.50 75.66 74.19 78.78 76.04 80.99 C 75.19 80.80 73.49 80.44 72.65 80.26 C 72.73 81.82 74.02 82.65 75.48 82.21 C 77.31 81.74 76.97 79.54 77.22 78.11 C 76.49 77.33 75.03 75.76 74.30 74.98 C 75.88 75.12 77.46 75.24 79.04 75.34 C 79.02 77.66 78.89 79.99 78.48 82.28 C 80.08 81.87 84.90 82.91 83.39 79.91 C 83.38 79.00 83.48 78.10 83.69 77.21 C 84.89 78.40 85.53 79.89 85.85 81.52 C 85.03 83.46 84.23 85.41 83.43 87.36 C 82.60 87.53 81.78 87.70 80.96 87.87 C 81.69 88.59 82.42 89.32 83.16 90.04 C 81.00 90.81 79.41 92.47 78.29 94.42 C 77.93 93.91 77.20 92.89 76.84 92.38 C 76.75 91.99 76.57 91.20 76.48 90.80 C 72.90 90.84 69.31 90.88 65.73 90.79 L 65.88 91.21 C 65.44 93.39 64.96 95.56 64.52 97.74 L 64.24 97.20 C 64.14 95.09 64.13 92.98 64.10 90.87 C 60.04 90.87 55.98 90.85 51.92 90.85 C 51.94 92.96 51.95 95.07 51.94 97.18 C 51.31 96.81 50.05 96.08 49.43 95.71 C 49.86 94.07 50.31 92.44 50.77 90.81 C 47.21 90.83 43.65 90.85 40.09 90.82 C 40.09 93.04 40.10 95.26 40.08 97.47 C 41.49 95.71 42.56 92.96 45.28 93.29 C 44.70 95.38 44.11 97.46 43.51 99.54 C 41.20 98.91 38.81 98.74 36.43 98.95 C 35.82 96.20 35.13 93.46 34.81 90.65 C 34.92 88.69 35.16 86.74 35.39 84.80 C 37.51 86.42 39.45 88.28 41.70 89.73 C 43.68 88.97 45.00 87.27 46.34 85.72 C 45.73 84.51 45.10 83.30 44.76 81.98 C 45.83 81.99 46.89 82.01 47.96 82.04 C 48.38 81.85 49.23 81.49 49.65 81.31 L 51.28 80.76 L 51.16 82.04 C 51.76 82.08 52.96 82.15 53.56 82.19 C 53.23 79.28 53.12 76.32 53.63 73.42 L 55.15 73.44 C 55.32 76.31 55.30 79.18 55.05 82.04 C 56.37 82.03 57.68 82.02 59.00 82.02 C 59.03 81.46 59.08 80.34 59.11 79.79 C 58.50 80.21 57.29 81.05 56.69 81.46 C 56.95 80.11 57.34 78.79 57.86 77.52 C 57.46 76.42 57.05 75.31 56.64 74.21 C 57.25 74.59 58.46 75.34 59.07 75.72 C 59.08 75.18 59.09 74.10 59.10 73.57 C 58.29 73.54 56.66 73.49 55.85 73.46 C 55.70 72.76 55.40 71.37 55.25 70.68 C 57.08 69.94 58.77 70.60 60.29 71.70 C 60.80 70.74 61.31 69.78 61.83 68.83 Z" />
<path fill="#e0e0e0" d=" M 26.88 74.86 C 27.02 73.00 29.30 72.85 30.63 73.61 C 30.68 73.92 30.78 74.52 30.83 74.83 C 29.82 74.76 28.80 74.70 27.79 74.64 C 29.53 76.57 31.00 78.72 31.87 81.19 C 31.91 78.18 32.49 75.19 33.98 72.55 C 35.10 75.24 35.75 78.09 36.30 80.95 L 37.32 80.91 C 37.31 78.15 37.28 75.38 37.52 72.63 C 38.04 73.42 39.07 75.00 39.59 75.78 C 40.07 76.37 40.57 76.96 41.07 77.53 C 41.04 78.31 40.98 79.87 40.95 80.64 L 39.76 79.66 L 38.58 78.67 C 38.71 79.59 38.96 81.43 39.08 82.35 C 38.48 82.14 37.27 81.71 36.66 81.50 C 35.54 82.57 34.47 81.72 33.45 81.03 C 33.06 81.45 32.28 82.27 31.90 82.68 L 30.60 80.59 C 30.43 82.92 28.00 81.90 26.59 82.03 C 26.85 81.17 27.11 80.31 27.36 79.45 C 27.95 79.88 29.11 80.75 29.70 81.19 C 28.82 79.08 26.19 77.39 26.88 74.86 Z" />
<path fill="#9e9e9e" d=" M 40.39 72.75 C 40.76 72.92 41.50 73.26 41.87 73.42 C 42.20 76.55 41.98 79.71 41.90 82.84 C 41.05 81.87 40.33 80.81 39.76 79.66 L 40.95 80.64 C 40.98 79.87 41.04 78.31 41.07 77.53 C 40.57 76.96 40.07 76.37 39.59 75.78 C 39.79 75.03 40.19 73.51 40.39 72.75 Z" />
<path fill="#f8f8f8" d=" M 51.25 73.39 C 51.85 73.40 53.03 73.42 53.63 73.42 C 53.12 76.32 53.23 79.28 53.56 82.19 C 52.96 82.15 51.76 82.08 51.16 82.04 L 51.28 80.76 C 51.53 78.31 51.39 75.84 51.25 73.39 Z" />
<path fill="#ffffff" d=" M 55.15 73.44 L 55.85 73.46 C 56.66 73.49 58.29 73.54 59.10 73.57 C 59.09 74.10 59.08 75.18 59.07 75.72 C 58.46 75.34 57.25 74.59 56.64 74.21 C 57.05 75.31 57.46 76.42 57.86 77.52 C 57.34 78.79 56.95 80.11 56.69 81.46 C 57.29 81.05 58.50 80.21 59.11 79.79 C 59.08 80.34 59.03 81.46 59.00 82.02 C 57.68 82.02 56.37 82.03 55.05 82.04 C 55.30 79.18 55.32 76.31 55.15 73.44 Z" />
<path fill="#ffffff" d=" M 61.36 73.13 C 62.79 73.52 65.28 73.54 64.57 75.98 C 63.90 75.48 62.57 74.50 61.90 74.00 C 62.16 76.40 60.73 79.64 62.76 81.50 C 63.03 79.70 62.67 77.61 64.30 76.32 C 64.36 78.15 64.35 79.98 64.34 81.80 C 63.47 81.91 61.75 82.12 60.89 82.22 C 59.42 79.41 59.15 75.64 61.36 73.13 Z" />
<path fill="#ffffff" d=" M 65.93 75.18 C 66.15 73.51 68.87 72.53 69.75 74.20 C 71.64 76.73 70.85 80.14 69.17 82.55 C 65.47 82.43 64.77 78.04 65.93 75.18 Z" />
<path fill="#bebebe" d=" M 74.31 73.01 C 77.00 73.43 79.72 73.44 82.43 73.31 C 82.61 73.95 82.97 75.22 83.16 75.86 C 82.63 75.66 81.59 75.26 81.07 75.05 C 81.04 77.24 81.02 79.43 80.94 81.62 C 81.77 81.06 82.59 80.50 83.39 79.91 C 84.90 82.91 80.08 81.87 78.48 82.28 C 78.89 79.99 79.02 77.66 79.04 75.34 C 77.46 75.24 75.88 75.12 74.30 74.98 C 75.03 75.76 76.49 77.33 77.22 78.11 C 76.97 79.54 77.31 81.74 75.48 82.21 C 74.02 82.65 72.73 81.82 72.65 80.26 C 73.49 80.44 75.19 80.80 76.04 80.99 C 74.19 78.78 71.50 75.66 74.31 73.01 Z" />
<path fill="#ffffff" d=" M 84.58 73.23 C 84.98 73.34 85.79 73.58 86.19 73.70 C 86.83 76.64 87.44 79.60 87.73 82.60 L 85.85 81.52 C 85.53 79.89 84.89 78.40 83.69 77.21 C 83.99 75.88 84.29 74.55 84.58 73.23 Z" />
<path fill="#f8f8f8" d=" M 87.17 75.42 C 89.34 70.93 95.71 75.16 98.93 72.37 C 98.74 74.51 97.89 76.47 97.36 78.52 C 97.00 78.47 96.29 78.37 95.93 78.32 C 95.93 79.05 95.91 80.50 95.90 81.22 C 96.74 80.87 97.58 80.52 98.43 80.18 C 98.36 80.71 98.21 81.77 98.14 82.30 C 96.65 82.25 95.16 82.20 93.67 82.16 C 94.13 79.79 94.38 77.38 94.17 74.97 C 93.66 73.38 92.02 75.33 91.10 75.56 C 91.40 77.66 90.64 80.15 92.21 81.89 C 91.28 81.96 89.44 82.09 88.52 82.16 C 89.80 80.04 89.28 77.51 89.47 75.17 C 88.90 75.23 87.75 75.36 87.17 75.42 Z" />
<path fill="#ffffff" d=" M 45.33 73.28 L 47.40 73.57 C 47.16 76.00 47.07 78.43 47.06 80.87 L 47.95 80.86 C 47.96 78.18 47.88 75.51 47.79 72.83 C 50.55 74.86 50.07 78.35 49.65 81.31 C 49.23 81.49 48.38 81.85 47.96 82.04 C 46.89 82.01 45.83 81.99 44.76 81.98 C 45.78 79.18 45.47 76.19 45.33 73.28 Z" />
<path fill="#191918" d=" M 68.84 81.52 C 66.18 80.39 67.51 76.91 67.56 74.68 L 69.02 74.47 C 69.02 76.82 68.99 79.17 68.84 81.52 Z" />
<path fill="#020202" d=" M 96.46 75.46 C 96.80 75.80 96.80 75.80 96.46 75.46 Z" />
<path fill="#525252" d=" M 33.08 78.45 C 36.27 78.55 31.66 81.61 33.08 78.45 Z" />
<path fill="#dcdcdc" d=" M 78.29 94.42 C 79.41 92.47 81.00 90.81 83.16 90.04 C 84.65 90.46 87.02 90.24 87.58 92.06 C 87.85 94.13 87.76 96.22 87.80 98.30 C 86.87 96.53 86.04 94.71 84.92 93.05 C 81.94 92.04 82.39 95.97 82.18 97.80 C 81.19 100.07 79.56 101.95 77.77 103.62 C 77.56 100.54 77.91 97.47 78.29 94.42 Z" />
<path fill="#e5e5e5" d=" M 91.32 91.27 C 93.54 89.38 96.55 90.80 99.05 91.21 C 98.42 93.12 97.77 95.03 97.16 96.95 C 96.51 95.61 96.65 93.37 94.88 93.01 C 93.42 92.55 92.62 94.14 92.21 95.23 C 91.46 96.95 90.80 98.71 90.06 100.44 C 89.22 97.45 88.77 93.58 91.32 91.27 Z" />
<path fill="#f4f4f4" d=" M 29.83 90.68 C 31.49 90.66 33.15 90.65 34.81 90.65 C 35.13 93.46 35.82 96.20 36.43 98.95 C 37.39 103.28 38.27 107.63 39.26 111.95 C 37.59 111.96 35.92 111.96 34.25 111.95 C 34.12 111.34 33.86 110.12 33.73 109.52 C 32.27 109.05 30.79 108.68 29.29 108.43 C 29.85 109.66 30.44 110.87 31.06 112.06 C 29.07 112.01 27.08 111.99 25.10 111.99 C 25.59 111.16 26.09 110.34 26.55 109.49 C 27.34 106.92 27.93 104.29 28.52 101.67 C 29.25 98.05 30.81 94.41 29.83 90.68 Z" />
<path fill="#f8f9f8" d=" M 40.09 90.82 C 43.65 90.85 47.21 90.83 50.77 90.81 C 50.31 92.44 49.86 94.07 49.43 95.71 C 48.31 100.00 47.08 104.26 45.88 108.53 C 45.52 108.02 44.81 107.01 44.45 106.51 C 43.49 106.46 42.54 106.42 41.59 106.37 C 42.24 104.10 42.86 101.82 43.51 99.54 C 44.11 97.46 44.70 95.38 45.28 93.29 C 42.56 92.96 41.49 95.71 40.08 97.47 C 40.10 95.26 40.09 93.04 40.09 90.82 Z" />
<path fill="#f3f3f1" d=" M 51.92 90.85 C 55.98 90.85 60.04 90.87 64.10 90.87 C 64.13 92.98 64.14 95.09 64.24 97.20 C 63.11 95.65 61.85 94.20 60.48 92.85 C 60.08 98.20 60.37 103.56 60.25 108.91 C 61.20 109.93 62.15 110.96 63.10 111.98 C 59.70 111.96 56.29 111.96 52.89 111.83 C 53.88 110.89 54.88 109.95 55.87 109.00 C 55.71 103.58 56.06 98.15 55.56 92.75 C 54.27 94.15 53.08 95.65 51.94 97.18 C 51.95 95.07 51.94 92.96 51.92 90.85 Z" />
<path fill="#f6f6f4" d=" M 65.73 90.79 C 69.31 90.88 72.90 90.84 76.48 90.80 C 76.57 91.20 76.75 91.99 76.84 92.38 C 76.81 93.89 76.77 95.39 76.74 96.90 C 75.61 95.74 74.47 94.59 73.34 93.44 C 72.85 93.44 71.87 93.46 71.38 93.46 C 71.43 95.54 71.48 97.62 71.61 99.70 C 72.59 98.92 73.57 98.14 74.55 97.36 C 74.52 99.56 74.49 101.75 74.48 103.94 C 73.50 103.11 72.52 102.28 71.53 101.46 C 71.40 104.23 71.36 107.01 71.43 109.79 C 73.61 109.07 75.24 107.46 76.80 105.87 C 76.77 107.89 76.76 109.92 76.77 111.95 C 72.97 111.93 69.16 111.88 65.36 112.01 C 66.79 109.92 67.51 107.50 67.28 104.96 C 66.97 100.38 68.21 95.43 65.88 91.21 L 65.73 90.79 Z" />
<path fill="#dfdee4" d=" M 92.21 95.23 L 92.63 95.15 C 94.37 97.40 96.58 99.21 98.54 101.26 C 97.47 101.21 96.40 101.15 95.33 101.09 C 94.64 102.03 93.96 102.98 93.28 103.92 C 92.18 102.78 91.13 101.61 90.06 100.44 C 90.80 98.71 91.46 96.95 92.21 95.23 Z" />
<path fill="#121212" d=" M 23.01 96.14 C 23.70 96.16 25.07 96.20 25.75 96.22 C 26.67 98.04 27.60 99.85 28.52 101.67 C 27.93 104.29 27.34 106.92 26.55 109.49 C 21.31 107.32 22.89 100.62 23.01 96.14 Z" />
<path fill="#fafaf8" d=" M 77.77 103.62 C 79.56 101.95 81.19 100.07 82.18 97.80 C 82.57 101.98 81.03 106.86 83.90 110.41 C 85.70 108.81 86.75 106.65 87.68 104.48 C 87.65 106.51 87.64 108.54 87.64 110.57 C 87.34 111.02 86.73 111.91 86.43 112.36 C 84.56 112.20 82.33 112.66 80.84 111.21 C 78.60 109.36 78.13 106.32 77.77 103.62 Z" />
<path fill="#070707" d=" M 30.23 106.52 C 30.77 104.34 31.25 102.15 31.67 99.95 C 32.13 102.14 32.64 104.32 33.15 106.51 C 32.18 106.51 31.20 106.51 30.23 106.52 Z" />
<path fill="#f8f8f6" d=" M 95.33 101.09 C 96.40 101.15 97.47 101.21 98.54 101.26 C 99.94 104.81 98.06 108.40 98.52 112.01 C 98.36 111.60 98.04 110.77 97.88 110.36 C 95.76 113.51 91.92 112.33 88.96 111.39 C 89.91 109.37 90.86 107.34 91.76 105.30 C 92.03 106.73 92.31 108.16 92.61 109.58 C 93.61 109.57 94.61 109.56 95.62 109.54 C 96.24 107.24 94.85 105.41 93.28 103.92 C 93.96 102.98 94.64 102.03 95.33 101.09 Z" />
<path fill="#d8d7d7" d=" M 41.59 106.37 C 42.54 106.42 43.49 106.46 44.45 106.51 C 44.81 107.01 45.52 108.02 45.88 108.53 L 46.61 109.56 C 48.43 108.54 49.68 106.84 50.98 105.26 C 50.93 107.51 50.89 109.76 50.88 112.01 C 47.23 112.00 43.58 111.98 39.94 112.01 C 40.49 110.13 41.04 108.25 41.59 106.37 Z" />
</svg>
